<?xml version="1.0" encoding="utf-8"?>
<svg xmlns="http://www.w3.org/2000/svg" viewBox="0 0 500 500">
  <circle cx="250.861" cy="246.188" r="240" fill="#8C2F39" style="stroke-width: 1;"/>
  <circle cx="250.861" cy="246.188" r="212" fill="none" stroke="#E1E6E1" stroke-width="2.5" opacity="0.55" style="stroke-width: 2.5;"/>
  <path id="arcTop" d="M -80.697 432.082 C -80.697 312.763 48.47 238.189 151.803 297.848 C 199.761 325.536 229.303 376.706 229.303 432.082" fill="none" style="stroke-width: 1;"/>
  <path id="arcBot" d="M -100.7 432.082 C -100.7 566.797 45.137 650.994 161.803 583.636 C 215.949 552.376 249.303 494.603 249.303 432.082" fill="none" style="stroke-width: 1;"/>
  <g fill="#E1E6E1" transform="matrix(1.244904, 0, 0, 1.498609, -44.249256, -121.048538)" style="">
    <path d="M 138 302 L 148 212 L 170 249 L 193 198 L 216 242 L 240 172 L 264 242 L 287 198 L 310 249 L 332 212 L 342 302 Z"/>
    <circle cx="148" cy="208" r="9"/>
    <circle cx="193" cy="194" r="9"/>
    <circle cx="240" cy="168" r="10"/>
    <circle cx="287" cy="194" r="9"/>
    <circle cx="332" cy="208" r="9"/>
    <rect x="128" y="312" width="224" height="5"/>
    <circle cx="128" cy="314.5" r="7"/>
    <circle cx="352" cy="314.5" r="7"/>
  </g>
</svg>